<?xml version="1.0" encoding="UTF-8"?>
<svg xmlns="http://www.w3.org/2000/svg" width="3072.80" height="805.00" viewBox="0 0 3072.80 805.00" shape-rendering="auto">
  <title>RA•IO — horizontal — white</title>
  <desc>Posterama 2001 W04 Regular outlined logotype, 96-percent-width letters, generous spacing, R notch positioned at the visual centre of the bowl while remaining entirely on the vertical stem. R and O notches use exactly the same 102-unit outer opening, 58-unit inner opening, and 22-unit rounded terminal geometry.</desc>
  <g fill="#FFFFFF">
    <path id="R" d="M88.0 535.5Q88.0 522.5 93.0 518.0Q98.0 513.5 110.0 513.5H166.0Q178.0 513.5 183.0 518.0Q188.0 522.5 188.0 535.5V596.0Q188.0 603.0 190.5 605.5Q193.0 608.0 200.0 608.0H296.0Q386.0 608.0 433.5 576.5Q481.0 545.0 481.0 477.0Q481.0 358.0 330.0 342.0Q315.0 341.0 315.0 333.0Q315.0 327.0 321.0 319.0L505.0 27.0Q516.0 10.0 524.0 5.0Q532.0 0.0 549.0 0.0H608.0Q619.0 0.0 624.5 2.5Q630.0 5.0 630.0 11.0Q630.0 19.0 622.0 30.0L450.0 296.0Q514.0 318.0 550.0 364.5Q586.0 411.0 586.0 483.0Q586.0 700.0 301.0 700.0H110.0Q98.0 700.0 93.0 695.5Q88.0 691.0 88.0 678.0V535.5ZM166.0 0.0Q178.0 0.0 183.0 4.5Q188.0 9.0 188.0 22.0V433.5Q188.0 446.5 183.0 451.0Q178.0 455.5 166.0 455.5H110.0Q98.0 455.5 93.0 451.0Q88.0 446.5 88.0 433.5V22.0Q88.0 9.0 93.0 4.5Q98.0 0.0 110.0 0.0Z" transform="translate(-44.48 754.00) scale(0.9600 -1)"/>
    <path id="A" d="M111.0 30.0Q103.0 12.0 95.0 6.0Q87.0 0.0 71.0 0.0H19.0Q-1.0 0.0 -1.0 13.0Q-1.0 18.0 4.0 30.0L305.0 664.0Q320.0 695.0 327.0 704.5Q334.0 714.0 344.0 714.0Q353.0 714.0 359.5 704.5Q366.0 695.0 381.0 664.0L685.0 30.0Q690.0 18.0 690.0 13.0Q690.0 0.0 669.0 0.0H613.0Q597.0 0.0 589.5 6.0Q582.0 12.0 573.0 30.0L342.0 528.0Z" transform="translate(791.28 754.00) scale(0.9600 -1)"/>
    <circle id="bullet" cx="1733.68" cy="404.00" r="50.00"/>
    <path id="I" d="M166.0 0.0H110.0Q98.0 0.0 93.0 4.5Q88.0 9.0 88.0 22.0V678.0Q88.0 691.0 93.0 695.5Q98.0 700.0 110.0 700.0H166.0Q178.0 700.0 183.0 695.5Q188.0 691.0 188.0 678.0V22.0Q188.0 9.0 183.0 4.5Q178.0 0.0 166.0 0.0Z" transform="translate(1929.20 754.00) scale(0.9600 -1)"/>
    <path id="O" d="M765.032134 401Q756.189425 473.605684 721 535Q674 617 592 664Q510 711 408 711Q306 711 223.5 663.5Q141 616 93.5 532.5Q46 449 46 347Q46 246 93 164Q140 82 221.5 35.5Q303 -11 404 -11Q507 -11 590 36Q673 83 720.5 166Q755.590189 227.315489 764.757823 299Q764.757823 312 759.757823 316.5Q754.757823 321 742.757823 321L681.736629 321Q669.736629 321 664.736629 316.5Q659.736629 312 659.736629 299Q651.872085 253.556441 629.5 214Q595 153 535.5 118.5Q476 84 405 84Q334 84 275.5 118Q217 152 183.5 212.5Q150 273 150 348Q150 425 184 486Q218 547 277 581.5Q336 616 407 616Q478 616 537 582Q596 548 630 487.5Q652.309591 447.802052 659.980421 401Q659.980421 388 664.980421 383.5Q669.980421 379 681.980421 379L743.032134 379Q755.032134 379 760.032134 383.5Q765.032134 388 765.032134 401Z" transform="translate(2295.52 754.00) scale(0.9600 -1)"/>
  </g>
</svg>
